<svg xmlns="http://www.w3.org/2000/svg" viewBox="0 0 512 512">
  <defs>
    <linearGradient id="grad" x1="0%" y1="0%" x2="100%" y2="100%">
      <stop offset="0%" style="stop-color:#1e1b4b;stop-opacity:1" />
      <stop offset="100%" style="stop-color:#000000;stop-opacity:1" />
    </linearGradient>
  </defs>
  <rect width="512" height="512" fill="url(#grad)" rx="100" />
  <circle cx="256" cy="256" r="180" fill="#f59e0b" opacity="0.1" />
  <!-- Cat Head -->
  <path d="M156 340 L180 180 L256 300 L332 180 L356 340 Z" fill="#111" />
  <circle cx="256" cy="320" r="110" fill="#111" />
  <!-- Eyes -->
  <ellipse cx="216" cy="300" rx="20" ry="30" fill="#f59e0b" />
  <ellipse cx="296" cy="300" rx="20" ry="30" fill="#f59e0b" />
  <circle cx="216" cy="300" r="5" fill="#000" />
  <circle cx="296" cy="300" r="5" fill="#000" />
  <!-- Bowtie -->
  <path d="M220 400 L292 400 L256 420 Z" fill="#b91c1c" transform="rotate(-90 256 410)" />
  <path d="M220 400 L292 400 L256 420 Z" fill="#b91c1c" transform="rotate(90 256 410)" />
  <!-- Cocktail Glass Hint -->
  <path d="M360 380 L420 380 L390 420 Z" fill="#cbd5e1" opacity="0.5" />
</svg>